<svg width="117" height="79" viewBox="0 0 117 79" fill="none" xmlns="http://www.w3.org/2000/svg">
<path d="M45.8471 68.8206C44.6291 68.8206 43.4384 68.4536 42.4256 67.7662C41.4128 67.0787 40.6234 66.1016 40.1573 64.9584C39.6911 63.8152 39.5692 62.5572 39.8068 61.3436C40.0444 60.13 40.631 59.0152 41.4923 58.1402C42.3536 57.2652 43.451 56.6694 44.6456 56.428C45.8403 56.1866 47.0786 56.3105 48.204 56.784C49.3293 57.2575 50.2911 58.0594 50.9679 59.0883C51.6446 60.1171 52.0058 61.3268 52.0058 62.5642C52.0058 64.2235 51.3569 65.8148 50.202 66.9881C49.047 68.1614 47.4805 68.8206 45.8471 68.8206ZM45.8471 58.8103C45.1163 58.8103 44.4019 59.0305 43.7942 59.4429C43.1865 59.8554 42.7129 60.4417 42.4332 61.1276C42.1535 61.8135 42.0804 62.5683 42.223 63.2965C42.3655 64.0247 42.7175 64.6935 43.2342 65.2185C43.751 65.7435 44.4095 66.101 45.1262 66.2459C45.843 66.3907 46.586 66.3164 47.2612 66.0323C47.9364 65.7481 48.5136 65.267 48.9196 64.6497C49.3256 64.0324 49.5423 63.3066 49.5423 62.5642C49.5423 61.5686 49.153 60.6138 48.46 59.9098C47.7671 59.2058 46.8272 58.8103 45.8471 58.8103Z" fill="#00ADEE"/>
<path d="M70.4819 68.8206C69.2638 68.8206 68.0731 68.4536 67.0603 67.7662C66.0475 67.0787 65.2582 66.1016 64.792 64.9584C64.3259 63.8152 64.2039 62.5572 64.4416 61.3436C64.6792 60.13 65.2658 59.0152 66.1271 58.1402C66.9884 57.2652 68.0857 56.6694 69.2804 56.428C70.4751 56.1866 71.7134 56.3105 72.8387 56.784C73.9641 57.2575 74.9259 58.0594 75.6026 59.0883C76.2794 60.1171 76.6406 61.3268 76.6406 62.5642C76.6406 64.2235 75.9917 65.8148 74.8367 66.9881C73.6817 68.1614 72.1153 68.8206 70.4819 68.8206ZM70.4819 58.8103C69.7511 58.8103 69.0366 59.0305 68.429 59.4429C67.8213 59.8554 67.3477 60.4417 67.068 61.1276C66.7883 61.8135 66.7151 62.5683 66.8577 63.2965C67.0003 64.0247 67.3522 64.6935 67.869 65.2185C68.3858 65.7435 69.0442 66.101 69.761 66.2459C70.4778 66.3907 71.2208 66.3164 71.896 66.0323C72.5712 65.7481 73.1483 65.267 73.5543 64.6497C73.9604 64.0324 74.1771 63.3066 74.1771 62.5642C74.1771 61.5686 73.7878 60.6138 73.0948 59.9098C72.4018 59.2058 71.4619 58.8103 70.4819 58.8103Z" fill="#00ADEE"/>
<path d="M90.1895 66.3147H87.7261V68.8173H90.1895V66.3147Z" fill="#00ADEE"/>
<path d="M85.2623 66.3147H82.7988V68.8173H85.2623V66.3147Z" fill="#00ADEE"/>
<path d="M80.3357 66.3147H34.7617V68.8173H80.3357V66.3147Z" fill="#00ADEE"/>
<path d="M32.2979 66.3147H29.8345V68.8173H32.2979V66.3147Z" fill="#00ADEE"/>
<path d="M70.4815 58.8106H43.3835C42.2656 58.81 41.1811 58.4233 40.3081 57.7138C39.4352 57.0044 38.8257 56.0145 38.5797 54.9066L31.0662 20.9969C31.0036 20.7146 30.8467 20.4631 30.6221 20.2851C30.3975 20.1072 30.1192 20.0138 29.8344 20.0209H23.6758V17.5183H29.8344C30.6739 17.5173 31.4887 17.8067 32.1447 18.3389C32.8007 18.8711 33.2587 19.6144 33.4434 20.4463L40.9816 54.356C41.1046 54.91 41.4093 55.4049 41.8458 55.7597C42.2823 56.1144 42.8245 56.3078 43.3835 56.308H70.4815V58.8106Z" fill="#00ADEE"/>
<path d="M71.7139 52.5519H44.6158V50.0493H71.7139C72.2319 50.0498 72.7368 49.8844 73.1569 49.5767C73.5771 49.2689 73.891 48.8345 74.0542 48.3351L80.336 29.1654C80.3547 29.0368 80.3547 28.9061 80.336 28.7775C80.336 28.4457 80.2062 28.1274 79.9752 27.8927C79.7442 27.6581 79.431 27.5262 79.1043 27.5262H33.5303V25.0237H79.1043C79.689 25.0235 80.2653 25.1642 80.786 25.4343C81.3068 25.7044 81.7569 26.0962 82.0996 26.5774C82.4423 27.0587 82.6677 27.6157 82.7572 28.2026C82.8467 28.7895 82.7979 29.3897 82.6147 29.9537L76.3945 49.1109C76.0703 50.112 75.4433 50.9836 74.6028 51.6015C73.7624 52.2194 72.7514 52.552 71.7139 52.5519Z" fill="#00ADEE"/>
<path d="M80.4834 31.2839H60.6279V33.7865H80.4834V31.2839Z" fill="#00ADEE"/>
<path d="M58.1646 31.2839H55.7012V33.7865H58.1646V31.2839Z" fill="#00ADEE"/>
<path d="M53.2251 31.2839H50.7739V33.7865H53.2251V31.2839Z" fill="#00ADEE"/>
<path d="M64.4491 16.0777L50.1099 25.2332L51.4208 27.352L65.76 18.1965L64.4491 16.0777Z" fill="#00ADEE"/>
<path d="M55.8232 18.5772L53.7739 19.9661L55.8179 23.0783L57.8671 21.6894L55.8232 18.5772Z" fill="#00ADEE"/>
<path d="M43.3834 26.2782H40.9199V23.7756C40.9238 22.8769 41.1395 21.9923 41.5487 21.1955C41.958 20.3988 42.5491 19.7132 43.2725 19.1959L56.9324 9.56106C57.7289 9.03838 58.657 8.76032 59.6053 8.76024C60.0206 8.7661 60.434 8.82068 60.837 8.9229C62.8817 9.42341 68.018 11.0626 68.6462 11.2628C70.4691 10.1116 71.7994 9.23573 73.3267 8.2347L74.5585 7.39634C75.6148 6.67199 76.8562 6.27627 78.1305 6.25767C78.9787 6.22805 79.8222 6.39941 80.5939 6.75819C82.9827 8.10647 85.0778 9.93256 86.7526 12.1262C87.3464 12.9033 87.6712 13.8577 87.6764 14.8415C87.6123 16.0655 87.1083 17.2231 86.2599 18.0948C84.9543 19.3461 82.5647 21.4733 80.8649 22.9873L79.2637 21.0979C80.9758 19.5963 83.2791 17.5567 84.5355 16.3055C84.9146 15.9071 85.1529 15.3922 85.2129 14.8415C85.2142 14.4234 85.0752 14.0174 84.8188 13.6903C83.3908 11.7892 81.6025 10.198 79.5593 9.01049C78.9626 8.79623 78.3244 8.72874 77.697 8.81357C77.0697 8.8984 76.4711 9.13313 75.9503 9.49849L74.7186 10.3243C73.142 11.3629 71.7748 12.2638 69.8779 13.4651C69.3199 13.7718 68.6669 13.848 68.0549 13.6778C67.9564 13.6778 62.3643 11.8634 60.3197 11.3629C60.095 11.2995 59.8631 11.2659 59.6299 11.2628C59.1654 11.2654 58.7101 11.3951 58.312 11.6382L44.6151 21.2731C44.2361 21.5677 43.9283 21.9462 43.7148 22.3799C43.5014 22.8135 43.3881 23.2908 43.3834 23.7756V26.2782Z" fill="#00ADEE"/>
<path d="M77.8732 17.5186C77.5113 17.5192 77.1537 17.4388 76.8259 17.2831C76.498 17.1274 76.208 16.9002 75.9763 16.6177L74.8555 15.3664L76.6415 13.6772L77.8732 14.9285C79.4252 13.6772 83.1943 9.92334 83.2313 9.92334L84.9433 11.7252C84.7709 11.8879 80.8663 15.6792 79.3144 16.9555C78.9159 17.3126 78.4045 17.5124 77.8732 17.5186Z" fill="#00ADEE"/>
<path d="M81.9616 27.8155L79.9169 26.4141C80.1318 26.0892 80.2687 25.7178 80.3166 25.3295C80.3645 24.9411 80.3221 24.5468 80.1927 24.1782C80.0634 23.8095 79.8508 23.4769 79.572 23.2068C79.2931 22.9368 78.9558 22.737 78.5872 22.6234C78.2185 22.5098 77.8288 22.4857 77.4493 22.5528C77.0698 22.62 76.7111 22.7767 76.402 23.0103C76.0929 23.2438 75.842 23.5478 75.6695 23.8977C75.497 24.2476 75.4077 24.6338 75.4088 25.0251C75.4105 25.3111 75.4605 25.5947 75.5566 25.8635L73.2286 26.6894C73.0421 26.1549 72.9463 25.5922 72.9453 25.0251C72.9453 23.6977 73.4644 22.4246 74.3884 21.486C75.3123 20.5473 76.5655 20.02 77.8722 20.02C79.1789 20.02 80.4321 20.5473 81.3561 21.486C82.2801 22.4246 82.7992 23.6977 82.7992 25.0251C82.8042 26.0199 82.5122 26.9929 81.9616 27.8155Z" fill="#00ADEE"/>
<path d="M29.835 0H27.3716V5.00513H29.835V0Z" fill="#00ADEE"/>
<path d="M29.835 10.0068H27.3716V15.012H29.835V10.0068Z" fill="#00ADEE"/>
<path d="M35.9938 6.25439H31.0669V8.75696H35.9938V6.25439Z" fill="#00ADEE"/>
<path d="M26.1393 6.25439H21.2124V8.75696H26.1393V6.25439Z" fill="#00ADEE"/>
<path d="M88.9571 46.3005H86.4937V51.3057H88.9571V46.3005Z" fill="#00ADEE"/>
<path d="M88.9581 56.3077H86.4946V61.3129H88.9581V56.3077Z" fill="#00ADEE"/>
<path d="M95.1164 52.5551H90.1895V55.0576H95.1164V52.5551Z" fill="#00ADEE"/>
<path d="M85.2629 52.5551H80.3359V55.0576H85.2629V52.5551Z" fill="#00ADEE"/>
<ellipse opacity="0.15" cx="58.5655" cy="69.5543" rx="57.9619" ry="9.44565" fill="#00ADEE"/>
</svg>
