<svg width="119" height="79" viewBox="0 0 119 79" fill="none" xmlns="http://www.w3.org/2000/svg">
<path d="M39.372 69.4561C37.516 69.4561 35.7016 68.897 34.1584 67.8495C32.6152 66.802 31.4124 65.3131 30.7021 63.5712C29.9919 61.8292 29.806 59.9124 30.1681 58.0632C30.5302 56.214 31.424 54.5153 32.7364 53.1821C34.0488 51.8488 35.7209 50.9409 37.5412 50.5731C39.3616 50.2052 41.2484 50.394 42.9631 51.1156C44.6778 51.8371 46.1435 53.059 47.1746 54.6267C48.2058 56.1944 48.7561 58.0375 48.7561 59.923C48.7561 62.4513 47.7674 64.8761 46.0076 66.6639C44.2477 68.4518 41.8608 69.4561 39.372 69.4561ZM39.372 53.1136C38.0462 53.1136 36.7503 53.513 35.648 54.2612C34.5457 55.0095 33.6866 56.0729 33.1793 57.3172C32.6719 58.5614 32.5392 59.9306 32.7978 61.2514C33.0564 62.5723 33.6948 63.7857 34.6323 64.738C35.5697 65.6903 36.764 66.3388 38.0643 66.6015C39.3645 66.8643 40.7123 66.7294 41.9371 66.214C43.1619 65.6987 44.2088 64.8259 44.9453 63.7061C45.6818 62.5863 46.0749 61.2698 46.0749 59.923C46.0749 58.1171 45.3687 56.3851 44.1117 55.1081C42.8546 53.8311 41.1497 53.1136 39.372 53.1136Z" fill="#FF6400"/>
<path d="M79.5897 69.4561C77.7337 69.4561 75.9194 68.897 74.3762 67.8495C72.833 66.802 71.6301 65.3131 70.9199 63.5712C70.2096 61.8292 70.0238 59.9124 70.3859 58.0632C70.748 56.214 71.6417 54.5153 72.9541 53.1821C74.2665 51.8488 75.9386 50.9409 77.7589 50.5731C79.5793 50.2052 81.4661 50.394 83.1809 51.1156C84.8956 51.8371 86.3612 53.059 87.3924 54.6267C88.4235 56.1944 88.9739 58.0375 88.9739 59.923C88.9739 62.4513 87.9852 64.8761 86.2253 66.6639C84.4655 68.4518 82.0785 69.4561 79.5897 69.4561ZM79.5897 53.1136C78.264 53.1136 76.9681 53.513 75.8658 54.2612C74.7635 55.0095 73.9043 56.0729 73.397 57.3172C72.8897 58.5614 72.7569 59.9306 73.0155 61.2514C73.2742 62.5723 73.9126 63.7857 74.85 64.738C75.7874 65.6903 76.9818 66.3388 78.282 66.6015C79.5823 66.8643 80.93 66.7294 82.1548 66.214C83.3796 65.6987 84.4265 64.8259 85.163 63.7061C85.8996 62.5863 86.2927 61.2698 86.2927 59.923C86.2927 58.1171 85.5865 56.3851 84.3294 55.1081C83.0724 53.8311 81.3675 53.1136 79.5897 53.1136Z" fill="#FF6400"/>
<path d="M40.7124 58.5642H38.0312V61.288H40.7124V58.5642Z" fill="#FF6400"/>
<path d="M80.9307 58.5642H78.2495V61.288H80.9307V58.5642Z" fill="#FF6400"/>
<path d="M92.996 62.647H87.5264V59.9233H92.996C93.5365 59.9735 94.0813 59.9024 94.5917 59.7148C95.1021 59.5272 95.5657 59.2279 95.9495 58.838C96.3333 58.4481 96.628 57.9772 96.8126 57.4587C96.9972 56.9402 97.0673 56.3868 97.0178 55.8377C97.0178 49.1917 92.6877 36.7714 82.2713 36.7714H74.9248L65.8087 25.1955C65.3067 24.5585 64.6702 24.0442 63.9463 23.6906C63.2223 23.337 62.4294 23.1532 61.6261 23.1527H39.5465C38.8025 23.1529 38.0667 23.3105 37.3858 23.6153C36.705 23.9201 36.094 24.3655 35.5918 24.9231C32.0144 28.7842 28.8092 32.9843 26.0199 37.466C25.1227 38.9823 24.6585 40.7223 24.6793 42.4913V55.8377C24.6793 56.9212 25.103 57.9604 25.8573 58.7266C26.6115 59.4928 27.6345 59.9233 28.7011 59.9233H31.4895V62.647H28.6475C26.8698 62.647 25.1648 61.9296 23.9078 60.6526C22.6507 59.3756 21.9445 57.6436 21.9445 55.8377V42.4913C21.9321 40.2105 22.5549 37.9727 23.7409 36.036C26.6183 31.4031 29.9269 27.0615 33.6211 23.071C34.3789 22.243 35.2956 21.5814 36.3147 21.127C37.3337 20.6726 38.4336 20.4351 39.5465 20.429H61.6261C62.831 20.4297 64.0204 20.7055 65.1064 21.2358C66.1923 21.7662 67.1471 22.5377 67.9001 23.4932L76.2118 34.0477H82.2713C93.6395 34.0477 99.699 46.6995 99.699 55.8377C99.7517 56.7459 99.6144 57.6551 99.2962 58.5055C98.978 59.3559 98.486 60.1282 97.8527 60.7715C97.2195 61.4148 96.4593 61.9145 95.6221 62.2378C94.785 62.5611 93.89 62.7005 92.996 62.647Z" fill="#FF6400"/>
<path d="M71.6537 59.922H63.5029V62.6457H71.6537V59.922Z" fill="#FF6400"/>
<path d="M52.7777 59.922H47.3081V62.6457H52.7777V59.922Z" fill="#FF6400"/>
<path d="M59.4809 66.7318H24.6255V69.4556H59.4809V66.7318Z" fill="#FF6400"/>
<path d="M94.3366 66.7318H66.1841V69.4556H94.3366V66.7318Z" fill="#FF6400"/>
<path d="M62.163 64.011H54.1194C53.746 64.0172 53.3755 63.944 53.0315 63.7963C52.6875 63.6486 52.3777 63.4294 52.1219 63.153C51.8778 62.8939 51.6906 62.5851 51.5727 62.247C51.4549 61.909 51.409 61.5493 51.4382 61.1919L52.2158 50.4603L54.897 50.6646L54.1328 61.3826L62.1764 61.2872L59.5891 21.8882L62.2703 21.7112L64.8576 61.2055C64.8868 61.5629 64.8409 61.9226 64.7231 62.2606C64.6052 62.5987 64.418 62.9075 64.1739 63.1666C63.9154 63.4423 63.6029 63.6599 63.2566 63.8053C62.9102 63.9508 62.5376 64.0208 62.163 64.011Z" fill="#FF6400"/>
<path d="M52.5575 44.9608L52.4009 47.4617L55.0767 47.6346L55.2333 45.1338L52.5575 44.9608Z" fill="#FF6400"/>
<path d="M53.9802 21.6774L52.6973 41.8865L55.3729 42.0618L56.6559 21.8527L53.9802 21.6774Z" fill="#FF6400"/>
<path d="M54.4136 38.133H37.4953C36.5697 38.1294 35.6832 37.7534 35.0299 37.0872C34.3766 36.421 34.0098 35.5189 34.0098 34.5786C34.0076 34.0039 34.1458 33.4377 34.412 32.9307L37.3881 27.1836L39.761 28.4501L36.7848 34.2108C36.7212 34.3224 36.6887 34.4496 36.691 34.5786C36.6892 34.687 36.7087 34.7947 36.7483 34.8954C36.7879 34.9962 36.8469 35.0878 36.9218 35.1652C36.9966 35.2425 37.0859 35.3039 37.1844 35.3458C37.2828 35.3877 37.3886 35.4093 37.4953 35.4093H54.4136V38.133Z" fill="#FF6400"/>
<path d="M68.8641 35.4128H61.8662V38.1366H68.8641V35.4128Z" fill="#FF6400"/>
<path d="M28.647 51.7546H23.2847V54.4784H28.647V51.7546Z" fill="#FF6400"/>
<path d="M97.9559 50.3899H90.3145V53.1136H97.9559V50.3899Z" fill="#FF6400"/>
<path d="M96.3209 47.6644H84.1751C83.8213 47.6647 83.471 47.5938 83.1443 47.4559C82.8176 47.318 82.5209 47.1158 82.2715 46.8609L80.3679 44.9407C79.8867 44.413 79.6103 43.7258 79.5903 43.0068C79.5939 42.076 79.9594 41.1844 80.6072 40.5262C81.2551 39.8681 82.1329 39.4968 83.0491 39.4932H93.1035V42.2169H83.0491C82.947 42.2169 82.8458 42.2373 82.7515 42.277C82.6572 42.3167 82.5714 42.3749 82.4992 42.4483C82.427 42.5216 82.3698 42.6087 82.3307 42.7045C82.2916 42.8004 82.2715 42.9031 82.2715 43.0068L84.1751 44.9407H96.3209V47.6644Z" fill="#FF6400"/>
<path d="M63.1943 22.2519L60.674 21.3394C60.7706 21.0452 60.8204 20.7372 60.8214 20.427C60.8214 19.7046 60.5389 19.0118 60.0361 18.501C59.5332 17.9902 58.8513 17.7032 58.1402 17.7032C57.4291 17.7032 56.7472 17.9902 56.2444 18.501C55.7415 19.0118 55.459 19.7046 55.459 20.427C55.4601 20.7327 55.5099 21.0363 55.6065 21.3258L53.0861 22.2383C52.8249 21.49 52.7279 20.6927 52.8019 19.9023C52.8758 19.1119 53.119 18.3475 53.5142 17.6626C53.9095 16.9777 54.4474 16.3888 55.0902 15.9372C55.733 15.4856 56.4651 15.1823 57.2355 15.0483C58.0058 14.9144 58.7956 14.9531 59.5497 15.1618C60.3038 15.3705 61.0038 15.7441 61.6008 16.2564C62.1979 16.7688 62.6774 17.4076 63.0059 18.128C63.3344 18.8484 63.5039 19.633 63.5026 20.427C63.5015 21.0486 63.3973 21.6655 63.1943 22.2519Z" fill="#FF6400"/>
<path d="M42.5763 22.8826C41.2249 21.8529 40.2268 20.417 39.7238 18.7787C39.2207 17.1404 39.2382 15.3828 39.7738 13.7551C40.3093 12.1275 41.3358 10.7125 42.7075 9.71074C44.0792 8.70902 45.7265 8.17146 47.4159 8.17433C51.3438 8.17433 55.4594 10.7755 59.1997 15.5012L57.0816 17.1899C53.9848 13.186 50.459 10.8981 47.4159 10.8981C46.2904 10.8981 45.1935 11.2578 44.2804 11.9263C43.3674 12.5949 42.6846 13.5383 42.3287 14.6229C41.9728 15.7076 41.9618 16.8785 42.2974 17.9698C42.633 19.0612 43.2981 20.0176 44.1984 20.7036L42.5763 22.8826Z" fill="#FF6400"/>
<path d="M68.8663 24.5168H65.6489V21.7931H68.8663C70.2885 21.7931 71.6524 21.2191 72.6581 20.1975C73.6637 19.1759 74.2287 17.7903 74.2287 16.3456C74.2287 14.9008 73.6637 13.5152 72.6581 12.4936C71.6524 11.472 70.2885 10.8981 68.8663 10.8981C65.8232 10.8981 62.2974 13.186 59.2006 17.1899L57.0825 15.5012C60.8228 10.7755 64.9384 8.17432 68.8663 8.17432C70.9996 8.17432 73.0455 9.03521 74.5539 10.5676C76.0624 12.1 76.9099 14.1784 76.9099 16.3456C76.9099 18.5127 76.0624 20.5911 74.5539 22.1235C73.0455 23.6559 70.9996 24.5168 68.8663 24.5168Z" fill="#FF6400"/>
<path d="M90.3145 0H87.6333V5.44749H90.3145V0Z" fill="#FF6400"/>
<path d="M90.3145 10.8899H87.6333V16.3374H90.3145V10.8899Z" fill="#FF6400"/>
<path d="M97.0177 6.80957H91.6553V9.53332H97.0177V6.80957Z" fill="#FF6400"/>
<path d="M86.293 6.80957H80.9307V9.53332H86.293V6.80957Z" fill="#FF6400"/>
<ellipse opacity="0.15" cx="59.25" cy="69.3444" rx="59.25" ry="9.65556" fill="#FF6400"/>
</svg>
